<?xml version="1.0" encoding="UTF-8"?>
<!DOCTYPE svg PUBLIC "-//W3C//DTD SVG 1.1//EN" "http://www.w3.org/Graphics/SVG/1.1/DTD/svg11.dtd">
<svg xmlns="http://www.w3.org/2000/svg" version="1.1" width="1181px" height="1181px" style="shape-rendering:geometricPrecision; text-rendering:geometricPrecision; image-rendering:optimizeQuality; fill-rule:evenodd; clip-rule:evenodd" xmlns:xlink="http://www.w3.org/1999/xlink">
<g><path style="opacity:1" fill="#0977c4" d="M -0.5,-0.5 C 393.167,-0.5 786.833,-0.5 1180.5,-0.5C 1180.5,393.167 1180.5,786.833 1180.5,1180.5C 786.833,1180.5 393.167,1180.5 -0.5,1180.5C -0.5,786.833 -0.5,393.167 -0.5,-0.5 Z"/></g>
<g><path style="opacity:1" fill="#fdfefe" d="M 139.5,466.5 C 168.144,471.633 196.144,479.466 223.5,490C 260.015,504.834 275.515,532.001 270,571.5C 268.794,583.74 263.961,594.24 255.5,603C 241.87,611.156 227.87,611.656 213.5,604.5C 212.841,575.736 212.174,547.069 211.5,518.5C 209.872,509.519 204.538,505.685 195.5,507C 192.679,509.141 191.346,511.975 191.5,515.5C 190.501,580.998 190.168,646.665 190.5,712.5C 189.167,712.5 187.833,712.5 186.5,712.5C 172.242,707.684 157.909,703.017 143.5,698.5C 142.817,696.824 141.483,696.157 139.5,696.5C 139.5,619.833 139.5,543.167 139.5,466.5 Z"/></g>
<g><path style="opacity:1" fill="#1d83ce" d="M 138.5,466.5 C 138.5,543.5 138.5,620.5 138.5,697.5C 138.164,621.289 137.164,545.122 135.5,469C 136.691,468.302 137.691,467.469 138.5,466.5 Z"/></g>
<g><path style="opacity:1" fill="#e5eff6" d="M 138.5,466.5 C 138.833,466.5 139.167,466.5 139.5,466.5C 139.5,543.167 139.5,619.833 139.5,696.5C 141.483,696.157 142.817,696.824 143.5,698.5C 141.958,697.699 140.292,697.366 138.5,697.5C 138.5,620.5 138.5,543.5 138.5,466.5 Z"/></g>
<g><path style="opacity:1" fill="#0974cd" d="M 902.5,511.5 C 972.096,512.33 1041.76,512.83 1111.5,513C 1076.67,513.167 1041.83,513.333 1007,513.5C 971.827,513.5 936.994,512.833 902.5,511.5 Z"/></g>
<g><path style="opacity:1" fill="#fcfdfd" d="M 763.5,515.5 C 798.5,515.5 833.5,515.5 868.5,515.5C 868.5,520.5 868.5,525.5 868.5,530.5C 840.498,530.333 812.498,530.5 784.5,531C 774.142,534.026 767.975,540.859 766,551.5C 765.667,578.167 765.333,604.833 765,631.5C 760.777,648.389 750.277,658.889 733.5,663C 699.502,663.5 665.502,663.667 631.5,663.5C 631.5,658.5 631.5,653.5 631.5,648.5C 658.169,648.667 684.835,648.5 711.5,648C 722.691,646.473 729.858,640.306 733,629.5C 733.033,601.118 733.7,572.785 735,544.5C 740.044,530.29 749.544,520.624 763.5,515.5 Z"/></g>
<g><path style="opacity:1" fill="#fcfdfd" d="M 1114.5,515.5 C 1114.5,520.5 1114.5,525.5 1114.5,530.5C 1053.83,530.5 993.167,530.5 932.5,530.5C 932.333,543.504 932.5,556.504 933,569.5C 933.73,574.155 936.23,577.321 940.5,579C 988.833,579.333 1037.17,579.667 1085.5,580C 1111.62,587.397 1122.79,604.564 1119,631.5C 1114.5,648 1104,658.5 1087.5,663C 1025.17,663.5 962.834,663.667 900.5,663.5C 900.5,658.5 900.5,653.5 900.5,648.5C 954.834,648.667 1009.17,648.5 1063.5,648C 1081.52,644.645 1089.68,633.812 1088,615.5C 1084.73,605.226 1077.89,598.726 1067.5,596C 1018.83,595.667 970.167,595.333 921.5,595C 910.327,592.993 903.661,586.493 901.5,575.5C 901.5,555.5 901.5,535.5 901.5,515.5C 972.5,515.5 1043.5,515.5 1114.5,515.5 Z"/></g>
<g><path style="opacity:1" fill="#fbfdfd" d="M 453.5,580.5 C 499.65,579.858 545.65,579.192 591.5,578.5C 606.018,573.819 612.185,563.819 610,548.5C 606.463,538.303 599.296,532.47 588.5,531C 533.168,530.5 477.834,530.333 422.5,530.5C 422.5,525.5 422.5,520.5 422.5,515.5C 485.168,515.333 547.834,515.5 610.5,516C 633.264,522.698 643.764,537.865 642,561.5C 638.713,578.218 628.88,589.052 612.5,594C 565.538,595.309 518.538,595.975 471.5,596C 462.737,599.761 457.237,606.261 455,615.5C 454.5,631.497 454.333,647.497 454.5,663.5C 444.167,663.5 433.833,663.5 423.5,663.5C 423.05,644.112 423.55,624.779 425,605.5C 430.317,592.347 439.817,584.013 453.5,580.5 Z"/></g>
<g><path style="opacity:1" fill="#7db3df" d="M 191.5,515.5 C 191.5,581.833 191.5,648.167 191.5,714.5C 189.219,714.923 187.552,714.256 186.5,712.5C 187.833,712.5 189.167,712.5 190.5,712.5C 190.168,646.665 190.501,580.998 191.5,515.5 Z"/></g>
<g><path style="opacity:1" fill="#a8cde6" d="M 1114.5,515.5 C 1043.5,515.5 972.5,515.5 901.5,515.5C 901.5,535.5 901.5,555.5 901.5,575.5C 900.503,555.34 900.17,535.007 900.5,514.5C 972.002,514.167 1043.34,514.501 1114.5,515.5 Z"/></g>
<g><path style="opacity:1" fill="#cadee9" d="M 211.5,518.5 C 212.174,547.069 212.841,575.736 213.5,604.5C 211.508,576.186 210.841,547.519 211.5,518.5 Z"/></g>
<g><path style="opacity:1" fill="#6babda" d="M 591.5,578.5 C 545.65,579.192 499.65,579.858 453.5,580.5C 454.609,579.71 455.942,579.21 457.5,579C 502.165,578.5 546.832,578.333 591.5,578.5 Z"/></g>
<g><path style="opacity:1" fill="#fbfdfd" d="M 125.5,605.5 C 126.5,605.5 127.5,605.5 128.5,605.5C 128.819,615.749 128.486,625.916 127.5,636C 108.915,642.654 90.2479,649.321 71.5,656C 64.4602,660.86 65.1269,664.527 73.5,667C 83.7325,668.21 93.7325,667.21 103.5,664C 111.634,660.456 119.967,657.622 128.5,655.5C 128.5,664.5 128.5,673.5 128.5,682.5C 98.2675,687.564 68.6009,685.397 39.5,676C 32.8201,673.91 26.9868,670.41 22,665.5C 17.6545,659.763 17.4878,653.93 21.5,648C 27.199,643.818 33.199,640.152 39.5,637C 68.2479,626.585 96.9146,616.085 125.5,605.5 Z"/></g>
<g><path style="opacity:1" fill="#c0def7" d="M 271.5,619.5 C 259.817,619.398 248.15,619.731 236.5,620.5C 243.443,619.031 250.609,618.364 258,618.5C 262.68,618.501 267.18,618.834 271.5,619.5 Z"/></g>
<g><path style="opacity:1" fill="#fbfdfd" d="M 271.5,619.5 C 292.715,620.089 312.715,625.255 331.5,635C 340.334,640.145 342.167,646.978 337,655.5C 328.985,662.594 319.818,667.761 309.5,671C 273.094,683.746 236.76,696.579 200.5,709.5C 200.168,699.478 200.501,689.478 201.5,679.5C 230.177,669.332 258.844,659.165 287.5,649C 295.815,643.909 295.148,640.242 285.5,638C 278.833,637.333 272.167,637.333 265.5,638C 244.294,644.458 223.294,651.625 202.5,659.5C 201.506,649.347 201.172,639.014 201.5,628.5C 212.733,624.109 224.399,621.443 236.5,620.5C 248.15,619.731 259.817,619.398 271.5,619.5 Z"/></g>
<g><path style="opacity:1" fill="#8bc0e5" d="M 201.5,628.5 C 201.172,639.014 201.506,649.347 202.5,659.5C 202.44,660.043 202.107,660.376 201.5,660.5C 200.177,649.674 200.177,639.007 201.5,628.5 Z"/></g>
<g><path style="opacity:1" fill="#e4f1f7" d="M 1143.5,639.5 C 1153.95,637.216 1160.28,641.216 1162.5,651.5C 1160.57,660.8 1154.91,664.634 1145.5,663C 1137.76,659.464 1135.26,653.631 1138,645.5C 1139.36,642.977 1141.19,640.977 1143.5,639.5 Z"/></g>
<g><path style="opacity:1" fill="#2a80c5" d="M 1145.5,640.5 C 1157.19,640.687 1161.36,646.354 1158,657.5C 1154.26,661.259 1149.76,662.426 1144.5,661C 1136.32,653.726 1136.66,646.892 1145.5,640.5 Z"/></g>
<g><path style="opacity:1" fill="#e4f1f7" d="M 1144.5,644.5 C 1147.78,644.216 1150.94,644.549 1154,645.5C 1154.76,647.809 1154.26,649.809 1152.5,651.5C 1154.02,653.662 1155.02,655.995 1155.5,658.5C 1152.22,657.969 1150.89,655.969 1151.5,652.5C 1149.83,652.5 1148.17,652.5 1146.5,652.5C 1146.8,654.604 1146.47,656.604 1145.5,658.5C 1144.51,653.88 1144.17,649.214 1144.5,644.5 Z"/></g>
<g><path style="opacity:1" fill="#3789cb" d="M 1146.5,646.5 C 1148.17,646.5 1149.83,646.5 1151.5,646.5C 1151.5,647.833 1151.5,649.167 1151.5,650.5C 1149.83,650.5 1148.17,650.5 1146.5,650.5C 1146.5,649.167 1146.5,647.833 1146.5,646.5 Z"/></g>
<g><path style="opacity:1" fill="#dcecf5" d="M 315.5,688.5 C 322.164,687.66 327.331,689.994 331,695.5C 332.748,710.435 326.582,715.935 312.5,712C 307.741,707.509 306.241,702.009 308,695.5C 309.742,692.254 312.242,689.921 315.5,688.5 Z"/></g>
<g><path style="opacity:1" fill="#217dc4" d="M 317.5,690.5 C 328.116,691.636 331.616,697.303 328,707.5C 324.604,711.203 320.437,712.369 315.5,711C 313,709.833 311.167,708 310,705.5C 307.388,697.64 309.888,692.64 317.5,690.5 Z"/></g>
<g><path style="opacity:1" fill="#c3def3" d="M 322.5,694.5 C 320.167,694.5 317.833,694.5 315.5,694.5C 315.334,698.846 315.501,703.179 316,707.5C 316.198,705.618 316.698,703.952 317.5,702.5C 317.5,704.5 317.5,706.5 317.5,708.5C 316.5,708.5 315.5,708.5 314.5,708.5C 314.5,703.5 314.5,698.5 314.5,693.5C 317.385,693.194 320.052,693.527 322.5,694.5 Z"/></g>
<g><path style="opacity:1" fill="#eff7f8" d="M 322.5,694.5 C 324.796,696.218 325.129,698.385 323.5,701C 324.09,703.196 324.757,705.362 325.5,707.5C 324.675,708.386 323.675,708.719 322.5,708.5C 322.167,706.5 321.833,704.5 321.5,702.5C 320.167,702.5 318.833,702.5 317.5,702.5C 316.698,703.952 316.198,705.618 316,707.5C 315.501,703.179 315.334,698.846 315.5,694.5C 317.833,694.5 320.167,694.5 322.5,694.5 Z"/></g>
<g><path style="opacity:1" fill="#7dacd0" d="M 317.5,695.5 C 317.5,696.833 317.5,698.167 317.5,699.5C 318.833,699.5 320.167,699.5 321.5,699.5C 320.081,700.451 318.415,700.784 316.5,700.5C 316.216,698.585 316.549,696.919 317.5,695.5 Z"/></g>
<g><path style="opacity:1" fill="#287fcd" d="M 317.5,695.5 C 321.517,694.839 322.851,696.172 321.5,699.5C 320.167,699.5 318.833,699.5 317.5,699.5C 317.5,698.167 317.5,696.833 317.5,695.5 Z"/></g>
</svg>
