<?xml version="1.0" encoding="utf-8"?>
<!-- Generator: Adobe Illustrator 27.5.0, SVG Export Plug-In . SVG Version: 6.00 Build 0)  -->
<svg version="1.1" id="Layer_1" xmlns="http://www.w3.org/2000/svg" xmlns:xlink="http://www.w3.org/1999/xlink" x="0px" y="0px"
	 width="283.5px" height="283.5px" viewBox="0 0 283.5 283.5" style="enable-background:new 0 0 283.5 283.5;" xml:space="preserve"
	>
<style type="text/css">
	.st0{fill:#FFFFFF;}
</style>
<rect class="st0" width="283.5" height="283.5"/>
<g>
	<g>
		<path d="M64.4,190.9L61,197c-2.6-1.9-6.2-3-9.3-3c-3.6,0-5.8,1.5-5.8,4.2c0,3.2,3.9,4,9.7,6.1c6.3,2.2,9.9,4.9,9.9,10.6
			c0,7.9-6.2,12.4-15,12.4c-4.3,0-9.5-1.1-13.5-3.6l2.5-6.7c3.3,1.7,7.1,2.8,10.6,2.8c4.7,0,6.9-1.7,6.9-4.3c0-2.9-3.4-3.8-8.9-5.7
			c-6.2-2.1-10.6-4.9-10.6-11.3c0-7.2,5.7-11.4,14-11.4C57.2,187.1,61.8,189,64.4,190.9"/>
		<polygon points="91.1,194.8 91.1,226.6 83,226.6 83,194.8 71.4,194.8 71.4,187.8 102.8,187.8 102.8,194.8 		"/>
		<polygon points="119.7,194.7 119.7,203.5 135.2,203.5 135.2,210.4 119.7,210.4 119.7,219.6 137.6,219.6 137.6,226.6 111.7,226.6 
			111.7,187.8 137.6,187.8 137.6,194.7 		"/>
		<path d="M163,197l-5.3,15.5h10.6L163,197z M155.6,219.1l-2.5,7.5h-8.4l14.4-38.8h8.1l14.8,38.8h-8.7l-2.6-7.5H155.6z"/>
		<polygon points="223.3,202.8 212.8,225.5 208.2,225.5 197.9,203 197.9,226.6 190.2,226.6 190.2,187.8 197.9,187.8 210.8,215.8 
			223.3,187.8 231,187.8 231,226.6 223.3,226.6 		"/>
		<path d="M240.4,192.4h0.9c0.6,0,1-0.4,1-0.9s-0.3-0.8-1-0.8h-0.9V192.4z M241.3,189.9c1.4,0,1.8,0.7,1.8,1.5
			c0,0.7-0.4,1.2-0.9,1.5l1.2,2.3h-1l-1-2.1h-1.1v2.1h-0.8v-5.3H241.3z M236.8,192.7c0,2.8,2,4.5,4.4,4.5s4.4-1.8,4.4-4.5
			c0-2.8-2-4.5-4.4-4.5S236.8,189.9,236.8,192.7 M246.6,192.7c0,3.3-2.5,5.4-5.3,5.4c-2.9,0-5.3-2.1-5.3-5.4c0-3.3,2.5-5.4,5.3-5.4
			S246.6,189.3,246.6,192.7"/>
	</g>
	<g>
		<path d="M141.6,56c-27.2,0-49.5,21.2-51.7,48.1l27.8,11.6c2.4-1.6,5.2-2.6,8.3-2.6c0.3,0,0.5,0,0.8,0L139.2,95c0-0.1,0-0.2,0-0.3
			c0-10.9,8.8-19.7,19.6-19.7s19.6,8.9,19.6,19.7c0,10.9-8.8,19.7-19.6,19.7c-0.1,0-0.3,0-0.4,0l-17.6,12.7c0,0.2,0,0.5,0,0.7
			c0,8.2-6.6,14.8-14.7,14.8c-7.1,0-13-5.1-14.4-11.9l-19.9-8.3c6.2,22,26.1,38.1,49.9,38.1c28.6,0,51.8-23.4,51.8-52.3
			C193.5,79.4,170.3,56,141.6,56"/>
		<path d="M122.5,135.3l-6.4-2.7c1.1,2.4,3.1,4.4,5.7,5.4c5.6,2.4,12.1-0.3,14.4-6c1.1-2.7,1.1-5.8,0-8.5s-3.2-4.9-5.9-6
			s-5.6-1.1-8.1-0.1l6.6,2.7c4.1,1.7,6.1,6.5,4.4,10.7C131.4,135.1,126.6,137.1,122.5,135.3"/>
		<path d="M149,94.8c0-5.5,4.4-9.9,9.8-9.9c5.4,0,9.8,4.4,9.8,9.9s-4.4,9.9-9.8,9.9C153.4,104.6,149,100.2,149,94.8 M171.8,94.8
			c0-7.2-5.8-13.1-13-13.1s-13,5.9-13,13.1s5.8,13.1,13,13.1C165.9,107.9,171.8,102,171.8,94.8"/>
	</g>
</g>
</svg>
