<?xml version="1.0" encoding="UTF-8"?><svg id="Layer_2" xmlns="http://www.w3.org/2000/svg" viewBox="0 0 95.13 46.38"><defs><style>.cls-1{fill:#fff;}.cls-2{fill:#231f20;}</style></defs><g id="Layer_1-2"><g><polygon class="cls-1" points="95.07 0 94.52 0 .55 0 0 0 0 .5 0 45.88 0 46.38 .55 46.38 95.13 46.38 95.13 0 95.07 0"/><g><path class="cls-2" d="M94.52,.5V45.88H.55V.5H94.52"/><rect class="cls-1" x="1.92" y="2.11" width="26.22" height="7.53"/><rect class="cls-1" x="1.91" y="11.28" width="26.23" height="27.67"/><g><polygon class="cls-1" points="1.91 44.25 1.91 40.57 7.18 40.57 7.18 41.43 4.03 41.43 4.03 41.96 6.69 41.96 6.69 42.81 4.03 42.81 4.03 43.39 7.3 43.39 7.3 44.25 1.91 44.25"/><path class="cls-1" d="M11.78,41.64c-.03-.12-.15-.2-.31-.25-.15-.05-.34-.07-.55-.07-.46,0-.67,.08-.67,.21,0,.54,3.71,.2,3.71,1.54,0,.85-1.25,1.27-3.02,1.27s-2.82-.57-2.86-1.23h2.03c.05,.13,.17,.23,.35,.29,.17,.06,.39,.09,.6,.09,.53,0,.88-.1,.88-.27,0-.56-3.72-.17-3.72-1.57,0-.78,1.18-1.17,2.8-1.17,1.79,0,2.61,.52,2.76,1.16h-2.01Z"/><path class="cls-1" d="M17.13,42.17h.83c.65,0,1.01-.1,1.01-.35s-.36-.38-.85-.38h-.99v.73Zm0,.8v1.28h-2.12v-3.67h3.05c2.15,0,2.86,.34,2.86,1.05,0,.42-.33,.78-1.08,.9,.68,.14,1.09,.23,1.09,.97,0,.48-.03,.64,.22,.64v.11h-2.15c-.05-.08-.11-.32-.11-.64,0-.48-.14-.64-1.13-.64h-.65Z"/><path class="cls-1" d="M24.34,41.43v.62h.88c.42,0,.73-.11,.73-.32,0-.29-.42-.29-.86-.29h-.75Zm0,1.28v.68h.92c.52,0,.92-.06,.92-.34,0-.32-.49-.34-1.17-.34h-.67Zm-2.11,1.53v-3.67h3.09c1.45,0,2.61,.2,2.61,.93,0,.38-.43,.66-.84,.8,.7,.1,1.07,.45,1.07,.84,0,.82-1.1,1.11-2.78,1.11h-3.15Z"/></g><rect class="cls-1" x="29.73" y="2.1" width="63.23" height="42.15"/><g><path class="cls-2" d="M15.9,28.37c-.4-1.49-1.18-2.37-2.3-2.67,.7-.83,1.09-2.12,.56-4.13-.75-2.82-2.64-4.18-4.95-3.55l-5.24,1.42-.11,.03,4.34,16.41,3.51-.95s-1.42-5.37-1.67-6.32l.17-.05c.54-.14,.93-.14,1.19,.01,.46,.27,.68,1.09,.93,2.04l.2,.76c.23,.91,.47,1.86,1.08,2.66l.24,.32,4.01-1.09-.54-.7c-.27-.35-.94-2.45-1.4-4.19Zm-5.74-2.93s-.45,.12-.89,.24c-.26-.99-.86-3.26-1.12-4.25,.44-.12,.89-.24,.89-.24,.42-.11,1.13-.31,1.65,1.66,.1,.38,.55,2.3-.53,2.59Z"/><path class="cls-2" d="M20.3,15.29l-4.73,1.28-.57,.15,4.34,16.41,3.59-.97s-1.4-5.27-1.65-6.21c.61-.17,1.54-.42,1.54-.42,2.8-.76,3.87-2.98,3-6.23-1.12-4.25-3.63-4.52-5.53-4.01Zm1.46,7.28s-.69,.19-1.28,.35c-.26-.97-.87-3.28-1.12-4.25,.52-.14,1.09-.29,1.09-.29,.62-.17,1.32-.17,1.88,1.95,.27,1-.01,2.1-.57,2.25Z"/></g><g><path class="cls-2" d="M3.18,7.99h-.52V3.72h.97c.18,0,.32,.09,.43,.28,.1,.19,.16,.47,.16,.83,0,.27-.04,.5-.11,.69-.07,.19-.19,.31-.36,.36h0s.07,.03,.12,.05c.05,.01,.1,.05,.15,.11,.05,.05,.09,.14,.13,.25,.04,.11,.05,.26,.05,.45,0,.07,0,.16,0,.28,0,.12,0,.25,0,.38,0,.13,.01,.25,.02,.36,0,.11,.02,.19,.03,.23h-.51c-.03-.13-.05-.27-.05-.41,0-.14,0-.28,0-.42,0-.13,0-.25,0-.36,0-.11-.01-.21-.04-.3-.02-.08-.06-.15-.11-.2-.05-.05-.13-.08-.23-.08h-.13v1.77Zm0-2.43h.23c.05,0,.09-.02,.13-.06,.03-.04,.06-.09,.08-.15,.02-.06,.03-.13,.04-.2,0-.07,.01-.15,.01-.21,0-.2-.02-.35-.07-.43-.05-.08-.11-.13-.2-.13h-.23v1.19Z"/><path class="cls-2" d="M4.4,7.99l.69-4.27h.69l.68,4.27h-.55l-.14-.95h-.71l-.14,.95h-.52Zm1.01-3.45h0l-.24,1.85h.5l-.25-1.85Z"/><path class="cls-2" d="M7.99,3.72v.71h-.58v3.56h-.52v-3.56h-.58v-.71h1.69Z"/><path class="cls-2" d="M8.23,7.99V3.72h.52V7.99h-.52Z"/><path class="cls-2" d="M9.19,7.99V3.72h.71l.67,2.96h0V3.72h.49V7.99h-.69l-.68-3.12h0v3.12h-.49Z"/><path class="cls-2" d="M12.64,5.04c0-.1,0-.19,0-.28,0-.09-.02-.17-.04-.24-.02-.07-.05-.12-.09-.16-.04-.04-.1-.06-.17-.06-.08,0-.14,.04-.19,.13-.04,.09-.08,.2-.1,.35-.02,.15-.03,.31-.04,.51,0,.19,0,.39,0,.6,0,.33,0,.61,.02,.81,.01,.21,.03,.36,.06,.48,.03,.11,.07,.19,.11,.23,.05,.04,.11,.06,.18,.06,.04,0,.09,0,.13-.02,.05-.02,.09-.04,.13-.06v-.95h-.28v-.66h.81v2.17s-.08,.02-.14,.04c-.06,.01-.12,.03-.19,.05-.07,.01-.13,.03-.2,.04-.07,0-.13,.01-.18,.01-.22,0-.39-.04-.52-.12-.13-.08-.23-.21-.3-.39-.07-.18-.11-.41-.13-.69-.02-.28-.03-.63-.03-1.04,0-.27,0-.53,.02-.79,.01-.26,.05-.49,.1-.69,.06-.2,.14-.37,.26-.5,.12-.13,.29-.19,.5-.19,.13,0,.24,.03,.34,.09,.1,.06,.19,.15,.26,.27,.07,.11,.12,.26,.16,.43,.03,.17,.05,.37,.04,.59h-.52Z"/><path class="cls-2" d="M14.39,3.72h.94c.12,0,.22,.03,.31,.09,.08,.06,.15,.14,.2,.26,.05,.11,.09,.25,.12,.4,.02,.16,.04,.33,.04,.53,0,.12,0,.26-.02,.4-.02,.15-.04,.28-.09,.41-.05,.13-.12,.23-.21,.32-.09,.08-.21,.13-.37,.13h-.39v1.74h-.52V3.72Zm.52,1.88h.29s.08-.02,.11-.05c.03-.03,.06-.08,.08-.13,.02-.05,.04-.11,.06-.18,.01-.07,.02-.14,.02-.21,0-.09,0-.17-.01-.25,0-.08-.02-.15-.04-.21-.02-.06-.05-.11-.09-.14-.04-.03-.09-.05-.14-.05h-.26v1.22Z"/><path class="cls-2" d="M16.31,7.99V3.72h1.37v.66h-.84v1.05h.77v.66h-.77v1.25h.87v.66h-1.39Z"/><path class="cls-2" d="M18.04,7.99V3.72h.71l.67,2.96h0V3.72h.49V7.99h-.69l-.68-3.12h0v3.12h-.49Z"/><path class="cls-2" d="M20.36,3.72h.87c.17,0,.31,.05,.42,.14,.11,.09,.19,.23,.25,.41,.06,.18,.1,.4,.12,.66,.02,.26,.03,.56,.03,.89v.39c0,.15,0,.3-.02,.46-.01,.16-.03,.32-.06,.48-.03,.16-.08,.3-.14,.42-.06,.12-.14,.22-.24,.3-.1,.08-.22,.11-.37,.11h-.85V3.72Zm.52,3.62h.25c.08,0,.14-.03,.19-.08,.05-.05,.09-.14,.11-.26,.03-.12,.05-.27,.06-.46,.01-.19,.02-.41,.02-.68,0-.2,0-.38,0-.56,0-.18-.02-.33-.04-.47-.02-.14-.06-.24-.11-.32-.05-.08-.12-.12-.21-.12h-.27v2.96Z"/><path class="cls-2" d="M22.46,7.99V3.72h.52V7.99h-.52Z"/><path class="cls-2" d="M23.43,7.99V3.72h.71l.66,2.96h0V3.72h.49V7.99h-.69l-.68-3.12h0v3.12h-.49Z"/><path class="cls-2" d="M26.88,5.04c0-.1,0-.19,0-.28,0-.09-.02-.17-.04-.24-.02-.07-.05-.12-.1-.16-.04-.04-.1-.06-.17-.06-.08,0-.14,.04-.19,.13-.04,.09-.08,.2-.09,.35-.02,.15-.03,.31-.04,.51,0,.19,0,.39,0,.6,0,.33,0,.61,.02,.81,.01,.21,.03,.36,.06,.48,.03,.11,.07,.19,.11,.23,.05,.04,.11,.06,.18,.06,.04,0,.09,0,.13-.02,.04-.02,.09-.04,.13-.06v-.95h-.28v-.66h.81v2.17s-.08,.02-.14,.04c-.06,.01-.12,.03-.19,.05-.07,.01-.13,.03-.2,.04-.07,0-.12,.01-.18,.01-.22,0-.39-.04-.52-.12-.13-.08-.23-.21-.3-.39-.07-.18-.11-.41-.13-.69-.02-.28-.03-.63-.03-1.04,0-.27,0-.53,.02-.79,.01-.26,.05-.49,.1-.69,.05-.2,.14-.37,.26-.5,.12-.13,.29-.19,.5-.19,.13,0,.24,.03,.34,.09,.1,.06,.19,.15,.26,.27,.07,.11,.12,.26,.15,.43,.03,.17,.05,.37,.04,.59h-.52Z"/></g><g><path class="cls-2" d="M38.25,21.26l-1.59-6.13h.97l1.12,4.54,1.09-4.54h.95l-1.59,6.13h-.95Z"/><path class="cls-2" d="M41.13,16.21v-1.09h.85v1.09h-.85Zm0,5.05v-4.44h.85v4.44h-.85Z"/><path class="cls-2" d="M42.55,20l.85-.18c.07,.47,.3,.7,.69,.7,.2,0,.36-.05,.46-.13,.1-.09,.15-.21,.15-.35,0-.1-.02-.17-.07-.23-.05-.06-.14-.1-.28-.15-.7-.21-1.14-.41-1.33-.6-.24-.24-.35-.56-.35-.98s.12-.75,.35-1c.23-.25,.57-.37,1.01-.37s.74,.09,.96,.28c.22,.19,.37,.48,.46,.9l-.8,.2c-.07-.36-.27-.54-.6-.54-.21,0-.36,.03-.45,.1-.09,.07-.13,.16-.13,.27,0,.1,.04,.18,.12,.24,.08,.07,.33,.17,.76,.3,.47,.15,.8,.34,.97,.55,.17,.21,.25,.5,.25,.86,0,.43-.13,.78-.39,1.06-.26,.28-.62,.42-1.07,.42-.41,0-.75-.12-1.02-.35-.26-.23-.44-.57-.52-1.02Z"/><path class="cls-2" d="M46.3,16.21v-1.09h.85v1.09h-.85Zm0,5.05v-4.44h.85v4.44h-.85Z"/><path class="cls-2" d="M49.49,16.81v.94h-.58v1.79c0,.39,0,.61,.03,.67,.03,.11,.1,.17,.21,.17,.08,0,.19-.04,.34-.11l.07,.91c-.2,.12-.42,.18-.67,.18-.22,0-.39-.06-.52-.18-.13-.12-.22-.29-.26-.51-.03-.16-.05-.49-.05-.99v-1.94h-.39v-.94h.39v-.88l.85-.69v1.57h.58Z"/><path class="cls-2" d="M53.67,19.85l.84,.2c-.11,.45-.29,.78-.53,.99-.24,.22-.53,.32-.87,.32-.48,0-.84-.18-1.1-.54-.31-.42-.46-1.01-.46-1.76s.15-1.34,.46-1.79c.26-.38,.6-.57,1.01-.57,.46,0,.82,.19,1.08,.58,.3,.44,.45,1.09,.45,1.95v.13h-2.13c0,.35,.07,.63,.21,.82,.13,.19,.3,.29,.49,.29,.27,0,.46-.21,.55-.64Zm.04-1.19c0-.35-.07-.61-.2-.78-.12-.17-.27-.26-.44-.26-.18,0-.33,.09-.45,.27-.13,.18-.19,.44-.18,.77h1.27Z"/><path class="cls-2" d="M54.95,20l.85-.18c.07,.47,.3,.7,.69,.7,.2,0,.36-.05,.46-.13,.1-.09,.15-.21,.15-.35,0-.1-.02-.17-.07-.23-.05-.06-.14-.1-.28-.15-.7-.21-1.14-.41-1.33-.6-.24-.24-.35-.56-.35-.98s.12-.75,.35-1c.23-.25,.57-.37,1.01-.37s.74,.09,.96,.28c.22,.19,.37,.48,.46,.9l-.8,.2c-.07-.36-.27-.54-.6-.54-.21,0-.36,.03-.45,.1-.09,.07-.13,.16-.13,.27,0,.1,.04,.18,.12,.24,.08,.07,.33,.17,.76,.3,.47,.15,.8,.34,.97,.55,.17,.21,.25,.5,.25,.86,0,.43-.13,.78-.39,1.06-.26,.28-.62,.42-1.08,.42-.42,0-.75-.12-1.02-.35-.26-.23-.44-.57-.52-1.02Z"/><path class="cls-2" d="M59.5,21.26h-.85v-4.44h.79v.63c.13-.29,.26-.49,.36-.59,.11-.1,.23-.15,.37-.15,.19,0,.38,.07,.56,.22l-.27,1.02c-.14-.13-.27-.19-.4-.19-.12,0-.22,.05-.31,.15-.09,.1-.15,.28-.19,.54-.04,.26-.06,.74-.06,1.43v1.37Z"/><path class="cls-2" d="M61.05,21.26v-6.13h.85v2.2c.13-.21,.27-.36,.43-.46,.16-.1,.32-.15,.5-.15,.38,0,.7,.19,.96,.58,.26,.39,.39,.96,.39,1.72s-.13,1.34-.4,1.74c-.27,.41-.58,.61-.94,.61-.18,0-.37-.06-.54-.19-.18-.13-.33-.32-.46-.56v.65h-.79Zm.84-2.32c0,.38,.03,.68,.1,.88,.06,.2,.15,.35,.27,.46,.12,.11,.24,.16,.37,.16,.19,0,.35-.11,.48-.33,.13-.22,.2-.57,.2-1.05,0-.51-.07-.87-.2-1.1-.13-.22-.3-.34-.51-.34s-.36,.11-.5,.33c-.14,.22-.21,.55-.21,1Z"/><path class="cls-2" d="M64.88,21.26v-1.18h.85v1.18h-.85Z"/><path class="cls-2" d="M66.4,18.97c0-.44,.08-.83,.23-1.19,.15-.36,.35-.63,.6-.8,.25-.18,.52-.27,.83-.27,.52,0,.92,.23,1.22,.69,.3,.46,.44,1,.44,1.61,0,.46-.08,.87-.23,1.24-.15,.37-.35,.65-.6,.83-.25,.18-.52,.28-.82,.28-.48,0-.87-.21-1.19-.62-.31-.41-.47-1-.47-1.77Zm.87,.06c0,.45,.08,.79,.23,1.02,.16,.23,.34,.34,.56,.34s.4-.11,.55-.35c.15-.23,.23-.58,.23-1.03s-.08-.78-.23-1.01c-.16-.23-.34-.35-.56-.35s-.4,.11-.55,.35c-.15,.23-.23,.57-.23,1.02Z"/><path class="cls-2" d="M71.2,21.26h-.85v-4.44h.79v.63c.14-.29,.26-.49,.36-.59,.11-.1,.23-.15,.37-.15,.19,0,.38,.07,.56,.22l-.27,1.02c-.14-.13-.27-.19-.4-.19-.12,0-.22,.05-.31,.15-.09,.1-.15,.28-.19,.54-.04,.26-.06,.74-.06,1.43v1.37Z"/><path class="cls-2" d="M72.71,21.55l.97,.16c.02,.16,.06,.28,.13,.35,.07,.07,.19,.1,.36,.1,.19,0,.34-.03,.45-.1,.08-.05,.14-.13,.19-.25,.04-.12,.07-.32,.07-.62v-.65c-.13,.24-.27,.42-.43,.54-.16,.12-.34,.18-.53,.18-.36,0-.66-.18-.9-.55-.28-.42-.42-.99-.42-1.7,0-.76,.13-1.33,.4-1.72,.26-.39,.58-.58,.96-.58,.2,0,.38,.06,.54,.18,.16,.12,.31,.3,.44,.55v-.62h.8v3.99c0,.64-.05,1.1-.15,1.39-.1,.29-.26,.51-.48,.65-.22,.15-.51,.22-.89,.22-.35,0-.63-.05-.84-.16-.21-.11-.37-.27-.48-.48-.11-.21-.17-.46-.17-.73v-.15Zm.76-2.61c0,.47,.07,.82,.2,1.04,.13,.22,.3,.33,.48,.33,.2,0,.38-.11,.52-.33,.15-.22,.22-.56,.22-1.01s-.07-.81-.21-1.03c-.14-.22-.31-.33-.51-.33s-.37,.11-.5,.33c-.13,.22-.2,.55-.2,1.01Z"/><path class="cls-2" d="M77.92,16.81h.47v-.33c0-.41,.03-.7,.1-.88,.07-.18,.18-.32,.33-.43,.15-.1,.34-.15,.56-.15,.24,0,.48,.05,.71,.15l-.11,.81c-.14-.04-.27-.07-.39-.07s-.21,.04-.26,.12c-.05,.08-.08,.23-.08,.46v.32h.63v.92h-.63v3.52h-.85v-3.52h-.47v-.92Z"/><path class="cls-2" d="M80.16,18.97c0-.44,.08-.83,.23-1.19,.15-.36,.35-.63,.6-.8,.25-.18,.52-.27,.83-.27,.52,0,.92,.23,1.22,.69,.3,.46,.44,1,.44,1.61,0,.46-.08,.87-.23,1.24-.15,.37-.36,.65-.6,.83-.25,.18-.52,.28-.82,.28-.48,0-.87-.21-1.19-.62-.31-.41-.47-1-.47-1.77Zm.87,.06c0,.45,.08,.79,.23,1.02,.15,.23,.34,.34,.56,.34s.4-.11,.55-.35c.15-.23,.23-.58,.23-1.03s-.08-.78-.23-1.01c-.16-.23-.34-.35-.56-.35s-.4,.11-.55,.35c-.15,.23-.23,.57-.23,1.02Z"/><path class="cls-2" d="M84.95,21.26h-.85v-4.44h.79v.63c.13-.29,.26-.49,.36-.59,.11-.1,.23-.15,.37-.15,.19,0,.38,.07,.56,.22l-.27,1.02c-.14-.13-.27-.19-.4-.19-.12,0-.22,.05-.31,.15-.09,.1-.15,.28-.19,.54-.04,.26-.06,.74-.06,1.43v1.37Z"/><path class="cls-2" d="M36.16,29.83h-.85v-4.44h.79v.63c.14-.29,.26-.49,.36-.59,.11-.1,.23-.15,.37-.15,.19,0,.38,.07,.56,.22l-.26,1.02c-.14-.13-.27-.19-.4-.19-.12,0-.22,.05-.31,.15-.09,.1-.15,.28-.19,.54-.04,.26-.06,.74-.06,1.43v1.37Z"/><path class="cls-2" d="M38.38,26.74l-.77-.19c.09-.45,.25-.77,.46-.97,.22-.2,.52-.29,.93-.29,.36,0,.63,.06,.82,.17,.19,.11,.32,.27,.41,.47,.08,.2,.12,.55,.12,1.07v1.37c0,.38,0,.67,.03,.86,.03,.19,.08,.39,.15,.6h-.84l-.11-.49c-.14,.2-.3,.34-.47,.44-.17,.1-.34,.15-.53,.15-.31,0-.57-.12-.77-.36-.2-.24-.3-.56-.3-.95,0-.25,.04-.47,.12-.66,.08-.19,.2-.34,.34-.45,.15-.11,.38-.21,.71-.3,.39-.1,.67-.2,.82-.29,0-.25-.01-.41-.05-.49-.03-.08-.09-.14-.17-.19-.08-.05-.2-.07-.35-.07s-.27,.04-.36,.12c-.09,.08-.16,.22-.21,.44Zm1.14,.96c-.11,.05-.28,.11-.5,.18-.26,.08-.44,.16-.52,.26-.08,.09-.12,.22-.12,.37,0,.17,.04,.32,.13,.43,.09,.12,.2,.17,.34,.17,.12,0,.24-.05,.36-.14,.12-.09,.2-.21,.25-.33,.05-.13,.07-.36,.07-.7v-.23Z"/><path class="cls-2" d="M42.66,25.38v.94h-.58v1.79c0,.39,0,.61,.03,.67,.03,.11,.1,.17,.21,.17,.08,0,.19-.04,.34-.11l.07,.91c-.2,.12-.42,.18-.67,.18-.22,0-.39-.06-.52-.18-.13-.12-.22-.29-.26-.51-.03-.16-.05-.49-.05-.99v-1.94h-.39v-.94h.39v-.88l.85-.69v1.57h.58Z"/><path class="cls-2" d="M43.25,24.78v-1.09h.85v1.09h-.85Zm0,5.05v-4.44h.85v4.44h-.85Z"/><path class="cls-2" d="M47.9,29.83h-.85v-2.27c0-.46-.02-.76-.05-.91-.03-.15-.09-.27-.18-.35-.09-.08-.19-.12-.3-.12-.14,0-.27,.05-.39,.16-.12,.1-.2,.25-.24,.43-.05,.18-.07,.53-.07,1.04v2.01h-.85v-4.44h.79v.65c.14-.25,.3-.44,.47-.56,.18-.13,.37-.19,.58-.19,.25,0,.46,.07,.63,.22,.17,.15,.29,.33,.35,.56,.07,.23,.1,.56,.1,1v2.76Z"/><path class="cls-2" d="M48.68,30.12l.97,.16c.01,.16,.06,.28,.13,.34,.07,.07,.19,.1,.36,.1,.19,0,.34-.04,.45-.11,.08-.05,.14-.13,.19-.25,.04-.12,.07-.32,.07-.62v-.65c-.13,.24-.27,.42-.43,.54-.16,.12-.34,.18-.53,.18-.36,0-.66-.18-.9-.55-.28-.42-.42-.99-.42-1.7,0-.76,.13-1.33,.4-1.72,.26-.39,.58-.58,.96-.58,.2,0,.38,.06,.54,.18,.16,.12,.31,.3,.44,.54v-.62h.8v3.99c0,.64-.05,1.1-.15,1.39-.1,.29-.26,.51-.48,.65-.22,.15-.51,.22-.89,.22-.35,0-.63-.05-.84-.16-.21-.11-.37-.26-.48-.48-.11-.21-.17-.45-.17-.73v-.15Zm.76-2.61c0,.48,.07,.82,.2,1.04,.13,.22,.3,.33,.48,.33,.2,0,.38-.11,.52-.33s.22-.56,.22-1.01-.07-.81-.21-1.03c-.14-.22-.31-.33-.51-.33s-.37,.11-.5,.33c-.13,.22-.2,.55-.2,1.01Z"/><path class="cls-2" d="M54.26,24.78v-1.09h.85v1.09h-.85Zm0,5.05v-4.44h.85v4.44h-.85Z"/><path class="cls-2" d="M58.9,29.83h-.85v-2.27c0-.46-.02-.76-.05-.91-.03-.15-.09-.27-.18-.35-.09-.08-.19-.12-.3-.12-.14,0-.27,.05-.39,.16-.12,.1-.2,.25-.24,.43-.05,.18-.07,.53-.07,1.04v2.01h-.85v-4.44h.79v.65c.14-.25,.3-.44,.47-.56,.18-.13,.37-.19,.58-.19,.25,0,.46,.07,.63,.22,.17,.15,.29,.33,.35,.56,.06,.23,.1,.56,.1,1v2.76Z"/><path class="cls-2" d="M59.39,25.38h.47v-.33c0-.41,.03-.7,.1-.88,.07-.18,.18-.32,.33-.43,.15-.1,.34-.15,.56-.15,.24,0,.48,.05,.71,.15l-.11,.81c-.14-.04-.27-.07-.39-.07s-.21,.04-.26,.12c-.05,.08-.08,.23-.08,.46v.32h.63v.92h-.63v3.52h-.85v-3.52h-.47v-.92Z"/><path class="cls-2" d="M61.63,27.54c0-.44,.08-.83,.23-1.19,.15-.36,.35-.63,.6-.8,.25-.18,.52-.27,.83-.27,.52,0,.92,.23,1.22,.69,.29,.46,.44,1,.44,1.61,0,.46-.08,.87-.23,1.24-.15,.37-.36,.65-.6,.83-.25,.19-.52,.28-.82,.28-.48,0-.87-.21-1.19-.62-.31-.41-.47-1-.47-1.77Zm.87,.06c0,.45,.08,.79,.23,1.02,.16,.23,.34,.35,.56,.35s.4-.12,.55-.35c.15-.23,.23-.58,.23-1.03s-.08-.78-.23-1.01c-.16-.23-.34-.35-.56-.35s-.4,.12-.55,.35c-.15,.23-.23,.57-.23,1.02Z"/><path class="cls-2" d="M66.43,29.83h-.85v-4.44h.79v.63c.14-.29,.26-.49,.36-.59,.11-.1,.23-.15,.37-.15,.19,0,.38,.07,.56,.22l-.27,1.02c-.14-.13-.27-.19-.4-.19-.12,0-.22,.05-.31,.15-.09,.1-.15,.28-.19,.54-.04,.26-.06,.74-.06,1.43v1.37Z"/><path class="cls-2" d="M67.95,25.38h.78v.61c.14-.24,.29-.41,.46-.53,.17-.12,.35-.18,.54-.18,.21,0,.39,.06,.54,.17,.15,.12,.27,.3,.37,.53,.14-.24,.3-.42,.46-.53,.16-.12,.34-.17,.52-.17,.22,0,.41,.06,.57,.18,.16,.12,.28,.29,.36,.51,.08,.22,.12,.56,.12,1.02v2.84h-.85v-2.54c0-.44-.03-.74-.1-.89-.07-.15-.18-.22-.35-.22-.19,0-.34,.1-.46,.31-.12,.2-.17,.61-.17,1.2v2.14h-.85v-2.44c0-.48-.02-.79-.07-.93-.06-.18-.19-.28-.37-.28-.13,0-.24,.05-.35,.14-.11,.09-.18,.23-.23,.42-.05,.18-.07,.49-.07,.93v2.16h-.85v-4.44Z"/><path class="cls-2" d="M74.16,26.74l-.77-.19c.09-.45,.25-.77,.46-.97,.22-.2,.52-.29,.93-.29,.36,0,.63,.06,.82,.17,.19,.11,.32,.27,.41,.47,.08,.2,.12,.55,.12,1.07v1.37c0,.38,0,.67,.03,.86,.03,.19,.08,.39,.15,.6h-.84l-.11-.49c-.15,.2-.3,.34-.47,.44-.17,.1-.34,.15-.53,.15-.31,0-.57-.12-.77-.36-.2-.24-.3-.56-.3-.95,0-.25,.04-.47,.12-.66,.08-.19,.2-.34,.34-.45,.15-.11,.38-.21,.71-.3,.39-.1,.67-.2,.82-.29,0-.25-.02-.41-.05-.49-.03-.08-.09-.14-.17-.19-.08-.05-.2-.07-.35-.07s-.27,.04-.36,.12c-.09,.08-.16,.22-.21,.44Zm1.14,.96c-.11,.05-.28,.11-.5,.18-.26,.08-.44,.16-.52,.26-.08,.09-.12,.22-.12,.37,0,.17,.04,.32,.13,.43,.09,.12,.2,.17,.34,.17,.12,0,.24-.05,.36-.14,.12-.09,.2-.21,.25-.33,.05-.13,.07-.36,.07-.7v-.23Z"/><path class="cls-2" d="M78.43,25.38v.94h-.58v1.79c0,.39,0,.61,.03,.67,.03,.11,.1,.17,.21,.17,.08,0,.19-.04,.34-.11l.07,.91c-.2,.12-.42,.18-.67,.18-.22,0-.39-.06-.52-.18-.13-.12-.22-.29-.26-.51-.03-.16-.05-.49-.05-.99v-1.94h-.39v-.94h.39v-.88l.85-.69v1.57h.58Z"/><path class="cls-2" d="M79.03,24.78v-1.09h.85v1.09h-.85Zm0,5.05v-4.44h.85v4.44h-.85Z"/><path class="cls-2" d="M80.55,27.54c0-.44,.08-.83,.23-1.19,.15-.36,.35-.63,.6-.8,.25-.18,.52-.27,.83-.27,.52,0,.92,.23,1.22,.69,.29,.46,.44,1,.44,1.61,0,.46-.08,.87-.23,1.24-.15,.37-.35,.65-.6,.83-.25,.19-.52,.28-.82,.28-.48,0-.87-.21-1.19-.62-.31-.41-.47-1-.47-1.77Zm.87,.06c0,.45,.08,.79,.23,1.02,.15,.23,.34,.35,.56,.35s.4-.12,.55-.35c.15-.23,.23-.58,.23-1.03s-.08-.78-.23-1.01c-.16-.23-.34-.35-.56-.35s-.4,.12-.55,.35c-.15,.23-.23,.57-.23,1.02Z"/><path class="cls-2" d="M87.45,29.83h-.85v-2.27c0-.46-.02-.76-.05-.91-.03-.15-.09-.27-.18-.35-.09-.08-.19-.12-.3-.12-.14,0-.27,.05-.39,.16-.12,.1-.2,.25-.24,.43-.05,.18-.07,.53-.07,1.04v2.01h-.85v-4.44h.79v.65c.14-.25,.3-.44,.47-.56,.18-.13,.37-.19,.58-.19,.25,0,.46,.07,.63,.22,.17,.15,.29,.33,.35,.56,.07,.23,.1,.56,.1,1v2.76Z"/></g></g></g></g></svg>